# xmcd
#
# Track frame offsets: 
#        150
#        19953
#        33030
#        50566
#        69425
#        84275
#        100171
#        119402
#        137320
#        156497
#        173796
#        193488
#        214582
#        233097
#        249120
#
# Disc length: 3508 seconds
#
# Revision: 0
# Processed by: cddbd v1.5.2PL0 Copyright (c) Steve Scherf et al.
# Submitted via: ExactAudioCopy v0.99pb4
#
DISCID=c20db20f
DTITLE=Dede Priest - Kinky At The Root
DYEAR=2011
DGENRE=Blues
TTITLE0=Lips Of A Friend
TTITLE1=Chicken Or The Egg
TTITLE2=Kinky At The Root
TTITLE3=What Would I Do
TTITLE4=I Got It
TTITLE5=Freddie King Way Down Deep
TTITLE6=Purple and Satin
TTITLE7=Dandelion In The Breeze
TTITLE8=Whole Christmas Thing
TTITLE9=Blues Gypsy
TTITLE10=Gather 'Round
TTITLE11=Freedom Moan
TTITLE12=Blues Is Running Red
TTITLE13=Gotta Die To Go To Heaven
TTITLE14=Judgement Day Bells
EXTD=
EXTT0=
EXTT1=
EXTT2=
EXTT3=
EXTT4=
EXTT5=
EXTT6=
EXTT7=
EXTT8=
EXTT9=
EXTT10=
EXTT11=
EXTT12=
EXTT13=
EXTT14=
PLAYORDER=
